<?xml version="1.0" encoding="iso-8859-1"?>
<!-- Uploaded to: SVG Repo, www.svgrepo.com, Generator: SVG Repo Mixer Tools -->
<!DOCTYPE svg PUBLIC "-//W3C//DTD SVG 1.1//EN" "http://www.w3.org/Graphics/SVG/1.1/DTD/svg11.dtd">
<svg fill="#ffffff" version="1.1" id="Capa_1" xmlns="http://www.w3.org/2000/svg" xmlns:xlink="http://www.w3.org/1999/xlink" 
	 width="800px" height="800px" viewBox="0 0 96.997 96.997"
	 xml:space="preserve">
<g>
	<g>
		<path d="M55.895,83.147c0.293-0.083,0.598-0.12,0.894-0.191C70.113,79.731,82.127,67.787,83.716,52.5
			c0.371-3.574,0.225-7.13-0.471-10.632c-3.462-17.455-18.864-29.497-36.172-28.713c-8.778,0.397-16.402,3.559-22.785,9.555
			c-11.763,11.053-14.61,28.353-6.93,42.555c5.069,9.373,12.934,15.243,23.316,17.702c1.838,0.437,2.936-0.063,3.895-1.718
			c0.556-0.957,0.926-1.993,1.159-3.069c1.199-5.522,1.029-11.062,0.158-16.604l0.04,0.008l-0.021-0.13
			c-0.428-2.596-0.869-5.281-2.601-7.521c0.251-0.048,0.497-0.091,0.74-0.134c0.617-0.107,1.199-0.21,1.778-0.354
			c0.134-0.034,0.241-0.051,0.33-0.051c0.267,0,0.388,0.15,0.461,0.577c0.227,1.306,0.68,2.372,1.384,3.263
			c0.234,0.297,0.422,0.43,0.607,0.43c0.198,0,0.391-0.153,0.605-0.483c0.157-0.242,0.313-0.484,0.47-0.728
			c0.917-1.425,1.865-2.898,2.999-4.202c0.072-0.086,0.143-0.187,0.216-0.294c0.182-0.266,0.369-0.541,0.622-0.541
			c0.03,0,0.062,0.004,0.097,0.014c0.399,0.103,0.47,0.482,0.544,0.886c0.031,0.167,0.064,0.339,0.122,0.489
			c0.067,0.175-0.021,0.319-0.115,0.474c-0.033,0.055-0.068,0.112-0.097,0.171c-0.334,0.734-0.678,1.479-1.011,2.199
			c-0.521,1.126-1.061,2.292-1.574,3.444c-0.356,0.799-0.717,1.76-0.687,2.831l0.001,0.032l0.022,0.003
			c-0.048,0.128-0.11,0.254-0.128,0.385c-0.533,3.854-0.664,7.722-0.345,11.597c0.199,2.434,0.459,4.877,1.507,7.124
			C52.583,82.626,53.382,83.864,55.895,83.147z M52.611,61.261c-0.303,0-0.607-0.015-0.931-0.044
			c0.098-0.662,0.343-1.271,0.568-1.782c0.503-1.126,1.029-2.266,1.539-3.367L53.819,56c0.359-0.777,0.685-1.479,1.014-2.203
			c0.01-0.021,0.022-0.041,0.036-0.062l0.011-0.02c0.132-0.212,0.4-0.652,0.184-1.217c-0.029-0.075-0.054-0.207-0.079-0.338
			c-0.084-0.458-0.242-1.309-1.16-1.547c-0.103-0.026-0.206-0.039-0.307-0.039c-0.696,0-1.084,0.567-1.314,0.907l-0.026,0.038
			c-0.045,0.064-0.087,0.127-0.131,0.177c-1.173,1.35-2.138,2.85-3.071,4.299l-0.396,0.613c-0.57-0.759-0.942-1.67-1.136-2.784
			c-0.183-1.053-0.802-1.272-1.289-1.272c-0.158,0-0.329,0.023-0.535,0.074c-0.557,0.141-1.146,0.243-1.718,0.344l-0.117,0.02
			c-0.229,0.041-0.46,0.082-0.695,0.126l-1.234,0.232l-0.063,0.011l0.814,1.039c1.455,1.858,1.939,4.082,2.306,6.203
			c-0.157-0.011-0.318-0.017-0.479-0.017c-1.44,0-2.625,0.461-3.624,1.41c-0.098,0.093-0.191,0.137-0.287,0.137
			c-0.114,0-0.252-0.063-0.388-0.181c-0.435-0.375-0.918-0.563-1.437-0.563c-0.35,0-0.717,0.083-1.155,0.264
			c-0.71,0.29-1.406,0.438-2.071,0.438c-1.566,0-2.889-0.803-3.822-2.321c-0.456-0.742-1.118-1.04-1.703-1.262
			c-1.238-0.468-1.908-1.422-2.105-3c-0.071-0.582,0.319-0.974,0.964-1.564l0.059-0.053c0.221-0.204,0.736-0.68,0.668-1.346
			C29.47,51.949,29,51.604,28.65,51.395c-0.295-0.178-0.6-0.452-0.957-0.867c-0.455-0.529-0.533-1.015-0.253-1.578
			c0.379-0.758,0.771-1.577,1.235-2.574l0.022-0.047c0.131-0.279,0.481-1.021-0.126-1.686c-0.298-0.325-0.337-0.741-0.143-1.533
			c0.521-2.124,1.483-3.892,2.86-5.252c0.379-0.375,0.64-0.795,0.846-1.363c0.663-1.832,1.689-3.161,3.135-4.063
			c0.342-0.214,0.709-0.512,0.847-1.103c0.221-0.959,0.866-1.611,2.157-2.181c0.5-0.222,1.256-0.556,1.675-1.31
			c0.313-0.565,0.786-0.771,1.805-0.779c0.706-0.006,1.295-0.2,1.866-0.389c0.117-0.039,0.236-0.078,0.356-0.114
			c1.495-0.466,3.191-0.991,4.869-0.991c0.56,0,1.084,0.056,1.603,0.171c0.396,0.088,0.771,0.344,1.251,0.855l0.052,0.056
			c0.273,0.294,0.687,0.737,1.453,0.737l0.114-0.001c2.536,0,4.342,1.35,5.52,4.125c0.601,1.415,1.345,2.333,2.653,3.277
			c3.309,2.385,5.199,5.417,5.621,9.01c0.037,0.322,0.115,0.701,0.404,1.07c1.359,1.738,1.354,3.538-0.015,5.35
			c-1.084,1.438-2.082,3.053-1.359,5.59c0.455,1.601-0.624,2.717-2.321,4.236l-0.045,0.04c-0.646,0.579-1.43,1.229-2.345,1.658
			c-0.437,0.204-0.828,0.309-1.165,0.309c-0.253,0-1.021,0-1.531-1.429c-0.007-0.019-0.013-0.04-0.019-0.061l-0.007-0.022
			c-0.186-0.652-0.542-0.981-1.061-0.981c-0.271,0-0.536,0.104-0.81,0.317C55.653,60.808,54.27,61.261,52.611,61.261z"/>
		<path d="M96.697,43.854c-1.224-9.613-5.708-17.502-13.278-23.539c-8.281-6.603-17.913-8.819-28.312-8.333
			c-0.237,0.011-0.488,0-0.659,0.227c16.719,1.605,29.716,15.102,31.905,31.254c1.369,10.105-1.066,19.374-7.344,27.485
			c-6.287,8.125-14.564,12.834-24.845,13.939c4.51,0.509,9.997,0.067,14.919-1.137C87.282,79.301,99.054,62.361,96.697,43.854z"/>
		<path d="M17.877,70.737c-6.278-8.282-8.69-17.667-7.107-27.953c2.55-16.56,16.707-29.803,32.635-30.57
			c-0.229-0.047-0.343-0.08-0.459-0.094c-3.695-0.438-7.375-0.262-11.036,0.325c-9.94,1.595-18.247,6.11-24.394,14.161
			c-6.4,8.386-8.777,17.873-6.884,28.292c1.608,8.848,6.022,16.125,12.999,21.768c8.555,6.922,18.477,9.204,29.296,8.247
			C32.534,83.782,24.158,79.023,17.877,70.737z"/>
	</g>
</g>
</svg>