<svg xmlns="http://www.w3.org/2000/svg" width="24" height="24" viewBox="0 0 24 24">
    <g fill="none" fill-rule="evenodd">
        <g fill="#000">
            <g>
                <path d="M9.5 13.25c.69 0 1.25.56 1.25 1.25v5c0 .69-.56 1.25-1.25 1.25h-5c-.69 0-1.25-.56-1.25-1.25v-5c0-.69.56-1.25 1.25-1.25zm10 0c.69 0 1.25.56 1.25 1.25v5c0 .69-.56 1.25-1.25 1.25h-5c-.69 0-1.25-.56-1.25-1.25v-5c0-.69.56-1.25 1.25-1.25zm-10.25 1.5h-4.5v4.5h4.5v-4.5zm10 0h-4.5v4.5h4.5v-4.5zM9.5 3.25c.69 0 1.25.56 1.25 1.25v5c0 .69-.56 1.25-1.25 1.25h-5c-.69 0-1.25-.56-1.25-1.25v-5c0-.69.56-1.25 1.25-1.25zm10 0c.69 0 1.25.56 1.25 1.25v5c0 .69-.56 1.25-1.25 1.25h-5c-.69 0-1.25-.56-1.25-1.25v-5c0-.69.56-1.25 1.25-1.25zM9.25 4.75h-4.5v4.5h4.5v-4.5zm10 0h-4.5v4.5h4.5v-4.5z" transform="translate(-59.000000, -781.000000) translate(59.000000, 781.000000)"/>
            </g>
        </g>
    </g>
</svg>
