<svg xmlns="http://www.w3.org/2000/svg" width="24" height="24" viewBox="0 0 24 24">
    <g fill="none" fill-rule="evenodd">
        <g fill="#000">
            <g>
                <path d="M21 8.25c.38 0 .693.282.743.648L21.75 9v7.889c0 1.746-1.25 2.782-2.658 2.857l-.163.004H6c-.414 0-.75-.336-.75-.75 0-.38.282-.693.648-.743L6 18.25h12.929c.674 0 1.25-.417 1.315-1.208l.006-.153V9c0-.414.336-.75.75-.75zm-4-3c.966 0 1.75.784 1.75 1.75v8c0 .966-.784 1.75-1.75 1.75H4c-.966 0-1.75-.784-1.75-1.75V7c0-.966.784-1.75 1.75-1.75zm0 1.5H4c-.138 0-.25.112-.25.25v8c0 .138.112.25.25.25h13c.138 0 .25-.112.25-.25V7c0-.138-.112-.25-.25-.25z" transform="translate(-142.000000, -781.000000) translate(142.000000, 781.000000)"/>
            </g>
        </g>
    </g>
</svg>
