<svg xmlns="http://www.w3.org/2000/svg" width="24" height="24" viewBox="0 0 24 24">
    <g fill="none" fill-rule="evenodd">
        <g fill="#000">
            <g>
                <path d="M22 15.313V17c0 1.657-1.343 3-3 3H5.6c-1.657 0-3-1.343-3-3v-1c0-1.731 1.1-3.205 2.638-3.762-.671-.646-1.088-1.55-1.088-2.55 0-1.97 1.614-3.563 3.6-3.563s3.6 1.593 3.6 3.563c0 1.249-.65 2.347-1.631 2.983.476.285.897.653 1.244 1.083.584-1.449 1.828-2.561 3.36-2.965-.977-.635-1.623-1.73-1.623-2.976 0-1.97 1.614-3.563 3.6-3.563s3.6 1.593 3.6 3.563c0 1.214-.614 2.285-1.55 2.928l.209.051c1.984.546 3.441 2.363 3.441 4.52zm-4.688-3.188H15.6c-1.869 0-3.395 1.464-3.495 3.308l-.005.192-.001 2.875H19c.78 0 1.42-.595 1.493-1.356L20.5 17v-1.688c0-1.7-1.33-3.088-3.007-3.182l-.18-.005zM7.3 13.5h-.7l-.164.005C5.132 13.59 4.1 14.675 4.1 16v1l.007.144c.073.761.713 1.356 1.493 1.356h4.9v-1.8l-.005-.182C10.4 14.836 9.006 13.5 7.3 13.5zm.45-5.875c-1.162 0-2.1.926-2.1 2.063 0 1.136.938 2.062 2.1 2.062 1.162 0 2.1-.926 2.1-2.063 0-1.136-.938-2.062-2.1-2.062zM16.3 5.75c-1.162 0-2.1.926-2.1 2.063 0 1.136.938 2.062 2.1 2.062 1.162 0 2.1-.926 2.1-2.063 0-1.136-.938-2.062-2.1-2.062z" transform="translate(-102.000000, -781.000000) translate(102.000000, 781.000000)"/>
            </g>
        </g>
    </g>
</svg>
