<svg
  width="200"
  version="1.0"
  xmlns="http://www.w3.org/2000/svg"
  viewBox="0 0 500 180"
>
  <g fill="${color}">
    <path
      d="m2.9 116.3l-0.7-20.4c0 0 4.8-3.6 6-7.1 1.1-2.9 0.9-12 1.6-15.2 5.6 1.3 14 0.8 14
0.8l7.1-10.9c-4.1-1.2-17.4-10.4-18.2-11q-0.1 0-0.1-0.1l1.8-4.6 30.3-6.3c0 0 61-29.9 97.6-34.5 36.7-4.7 131-8.2 159.5
8.8 28.5 16.9 79.8 40.1 79.8 40.1 0 0 83.5 9.1 105.4 29.8 0 0 8.4 9.7 6.8 15.5 0 0 3.4 3.3 3.4 4.8 0 1.6 1.3 18.2-0.7
18.7-1.9 0.4-10.8 1.1-12.2 3.8-1.4 2.8-15.7 14.8-10 15.5 5.8 0.6 22.2-3.4 22.2-3.4 0 0-2.7 3.1-4.6 3.4-2 0.4-19.3 4.5-37.7 5.5
0 0 4-47.2-36.2-51.9-40.3-4.6-49.4 44.4-46.6 51.9l-224.3-2.2c0 0-1.2-46.3-40.7-51.3-39.5-5-46.1 36-45 45.3 0
0-42-4.6-51.3-10.2l-7.7-8.6c0 0-0.8-4.3 0.5-6.2zm109.1-60.8l123.8 4.3 124.1 4.2c-47.4-46.3-88.5-53.8-154.3-53.6-65.7
0.2-86.6 24.6-93.6 30.4-7 5.8 0 14.7 0 14.7zm12.7-42.6l-77.3 30.5 5.1 1.6 74.5-29.8zm276.8 59c-16.2-1.4-20.5-11.3-21.1-12.7
0.4 1.6 4.4 14.6 20.9 14.7 15.7 0.1 41.3 4.4 46.5 5.3-5.2-1.1-30.8-6-46.3-7.3zm76.1 27.2l-11.6-11.7c3.2-2.5 16.9-1.7
16.9-1.7-13.3-3.8-24.7-1-24.7-1 0 0 17.4 20.7 21.7 17.5 4.1-3 9.9-1.3 10.3-1.2-2.2-3.2-12.6-1.9-12.6-1.9zm-61.2-9.7c34.3
0.2 44.2 34.8 44.2 34.8 0 0 37 1.7 34.6-2.5l-32 1.5c0 0-9.3-37.8-46.4-36.7-37.1 1.1-44.1 26.9-44.1 26.9 0 0 9.3-24.2
43.7-24zm-44.5-3.8h1.3c1.1 0 1.9-0.9 1.9-2 0-1.1-0.8-2-1.9-2h-1.3c-1.1 0-2 0.9-2 2 0 1.1 0.9 2 2 2zm-11.9-17.8c0.6 1.5 7.9
18.5 1.5 58.8 0.5-1.4 12.2-35.8-1.5-58.8zm-245.2-9q0.2 0.5 0.5 1 0.5 1 1.1 2.2 0.6 1.2 1.4 2.7 0.6 1.2 1.2 2.5 0.3 0.6 0.7
1.3 0.5 1 1.1 2.1 0.9 1.8 1.8 3.7 0.4 0.8 0.8 1.6 0.4 0.8 0.8 1.6c2.9 5.6 6.1 12 9.3 18.3q0.7 1.4 1.4 2.8 0.1 0.4 0.3 0.7
0.4 0.9 0.8 1.7 0.7 1.3 1.4 2.6 0.6 1.4 1.3 2.7 1.3 2.6 2.6 5.2 0.7 1.5 1.4 3 0.8 1.4 1.5 2.8 0.7 1.5 1.3 2.8 1.6 3.3 3 6
0.4 1 0.8 1.9 0.3 0.6 0.6 1.1 0.2 0.5 0.4 0.9 0.2 0.4 0.4 0.8 0.3 0.8 0.6 1.4 0.5 1 0.7 1.6c3.6 8.8 14.9 9.1 14.9 9.1h199c0
0-193.2-4.4-199.6-4.4-6.3 0-10.4-3.9-10.4-3.9l-41.6-76.8q0.2 0.4 0.5 1zm153 18.8c0-1-0.8-1.8-1.8-1.8h-20.5c-1 0-1.9 0.8-1.9
1.8 0 1 0.9 1.8 1.9 1.8h20.5c1 0 1.8-0.8 1.8-1.8zm-28 44c0 0 7.2-34.2-2.3-55.1 0 0 3.3 36.7
2.3 55.1zm-86.6-47.3c0-1.1-0.9-2-2.1-2h-19.9c-1.1 0-2 0.9-2 2 0 1.1 0.9 2 2 2h19.9c1.2 0 2.1-0.9 2.1-2zm18.1 49.9c0 0-18.7
3.8-14.9 7.1 3.9 3.3 205.1 5 205.1 5 0 0-5.2-6.1-14.1-6.4-8.8-0.2-176.1-5.7-176.1-5.7zm-108.3-7.9c10-27.3 45.1-28.7
45.1-28.7-35.6-2.5-47.5 20-47.5 20-4.8 1.9-6.5 0-6.5 0-3.9-6.4-17.3-6.4-30.8-6-13.4 0.4-17.1-3.3-17.1-3.3 0.6 5.4 18.6 8.3
30.6 8.3 12 0 16.3 9.7 16.3 9.7 5.8 1.9 9.9 0 9.9 0zm-50.9 13.2c0 0 39.1 10.1 45.9 8.8 0 0-1-4 1-8.8 0
0-41.1-0.5-52.8-5.3zm-6.8-8c16.2 4.9 47 3.7 47 3.7-19.7-0.2-47-7.5-47-7.5-3.6 0.6 0 3.8 0 3.8zm114.2-78.9c0 0 9.2-10.5
21.6-15.6l1.4 24.1-21.4-0.7c0 0-6.3-3-1.6-7.8z"
    ></path>
    <path
      d="m10.5 71.2l0.9-4.8c-0.4 1.9-0.7 3.7-0.9 4.8z"
    ></path>
    <path
      d="m12.6 52.4q0 0.1 0.1 0.1c0.5 0.4 0.7 1.4 0.7 2.5 0 0 10.6 8.9 12.6 9.7l-3.6 7.1h-12c-0.1 0.5-0.1
0.8-0.1 0.8-0.2 0.1-0.3 0.5-0.5 1q-0.2-0.1-0.5-0.1zm-1.7 16q-0.2 1-0.3 1.8z"
    ></path>
    <path
      d="m495.1 127.5c0 0 0.6 6.7-3 11.5 0 0-11.8 3.3-15 2.4 0 0 6.8-8.4 9-10.3 2.3-1.8 3.9-3.8 9-3.6z"
    ></path>
    <path
      d="m119.5 42.7c0 0 9.2-10.6 21.6-15.7l1.4 24.1-21.4-0.7c0 0-6.3-3-1.6-7.7z"
    ></path>
    <path
      d="m119.5 42.7c0 0 9.2-10.6 21.6-15.7l1.4 24.1-21.4-0.7c0 0-6.3-3-1.6-7.7z"
    ></path>
    <path
      d="m115.3 42.2c5.3-8.8 37.4-32.2 111.9-29.3 74.6 2.9 99.3 28 124.3 47.3l-233.4-7.8c0
0-8.2-1.3-2.8-10.2zm130.4 11.3l86 3.1c0 0-12.4-20.1-41.1-30.3-28.6-10.3-54.3-10.8-54.3-10.8zm-100-2.5l78.5
1.7-4-37.2c-31.1-3.6-75.9 10.2-75.9 10.2zm-24.5-0.7l21.4 0.8-1.4-24.1c-12.4 5-21.6 15.6-21.6 15.6-4.7 4.7 1.6 7.7 1.6 7.7z"
    ></path>
    <path
      d="m119.5 42.7c0 0 9.2-10.6 21.6-15.7l1.4 24.1-21.4-0.7c0 0-6.3-3-1.6-7.7z"
    ></path>
    <path
      d="m412.9 103.1c20.1 0 36.4 16.2 36.4 36.3 0 20.1-16.3 36.4-36.4 36.4-20.1 0-36.4-16.3-36.4-36.4
0-20.1 16.3-36.3 36.4-36.3zm-29.4 36.3c0 16.3 13.1 29.4 29.4 29.4 16.3 0 29.4-13.1 29.4-29.4 0-16.2-13.1-29.4-29.4-29.4-16.3
0-29.4 13.2-29.4 29.4zm9-18.7c0 2.3 1.7 8.2 16.8 16.5q-0.5 0.9-0.6 1.9c-16.8-1.4-21.8 2.4-23.2 4.5q-0.3-2.1-0.3-4.2c0-7.2
2.7-13.8 7.3-18.7zm17.2 21.4c0.4 0.5 0.9 0.9 1.5 1.2-8 14.2-6.9 20.5-5.7 22.8-8.1-2.2-14.8-8-18.1-15.6 1.9 1 7.9 2.3
22.3-8.4zm3.2-30.4c4.5 0 8.7 1.1 12.4 2.9-2.4 0.8-7.5 4.5-11.1 20.9q-0.6-0.3-1.3-0.3-0.4 0-0.7 0.1c-3.9-18.2-9.6-20.6-11.4-20.8
3.7-1.8 7.8-2.8 12.1-2.8zm1.3 31.7q1-0.3 1.7-1c12.4 11.6 18.7 11.5 21.1 10.8-4.1 7.1-11.3 12.3-19.7 13.6 1.4-1.9
3.5-7.7-3.1-23.4zm2.6-5.5c16.9-7.6 18.1-13.6 18-15.5 3.7 4.7 5.8 10.6 5.8 17q0 3.7-0.9 7c-1.2-2.2-5.9-6.4-22.6-6.5q0-0.2
0-0.5 0-0.8-0.3-1.5zm-5.5 5.3l-0.1 0.1q0 0 0.1-0.1z"
    ></path>
    <path
      d="m416.8 137.9c16.9-7.6 18.1-13.6 18-15.5 3.7 4.7 5.8 10.6 5.8 17q0 3.7-0.9 7c-1.2-2.2-5.9-6.4-22.6-6.5q0-0.2 0-0.5
0-0.8-0.3-1.5z"
    ></path>
    <path
      d="m414.2 143.4q1-0.3 1.7-1c12.4 11.6 18.7 11.5 21.1 10.8-4.1 7.1-11.3 12.3-19.7 13.6 1.4-1.9 3.5-7.7-3.1-23.4z"
    ></path>
    <path d="m411.3 143.2l-0.1 0.1q0 0 0.1-0.1z"></path>
    <path
      d="m412.9 111.7c4.5 0 8.7 1.1 12.4 2.9-2.4 0.8-7.5 4.5-11.1 20.9q-0.6-0.3-1.3-0.3-0.4 0-0.7 0.1c-3.9-18.2-9.6-20.6-11.4-20.8
3.7-1.8 7.8-2.8 12.1-2.8z"
    ></path>
    <path
      d="m409.7 142.1c0.4 0.5 0.9 0.9 1.5 1.2-8 14.2-6.9 20.5-5.7 22.8-8.1-2.2-14.8-8-18.1-15.6 1.9 1 7.9 2.3 22.3-8.4z"
    ></path>
    <path
      d="m392.5 120.7c0 2.3 1.7 8.2 16.8 16.5q-0.5 0.9-0.6 1.9c-16.8-1.4-21.8 2.4-23.2 4.5q-0.3-2.1-0.3-4.2c0-7.2 2.7-13.8 7.3-18.7z"
    ></path>
    <path
      d="m392.5 120.7c0 2.3 1.7 8.2 16.8 16.5q-0.5 0.9-0.6 1.9c-16.8-1.4-21.8 2.4-23.2
4.5q-0.3-2.1-0.3-4.2c0-7.2 2.7-13.8 7.3-18.7zm17.2 21.4c0.4 0.5 0.9 0.9 1.5 1.2-8 14.2-6.9 20.5-5.7 22.8-8.1-2.2-14.8-8-18.1-15.6
1.9 1 7.9 2.3 22.3-8.4zm3.2-30.4c4.5 0 8.7 1.1 12.4 2.9-2.4 0.8-7.5 4.5-11.1 20.9q-0.6-0.3-1.3-0.3-0.4 0-0.7
0.1c-3.9-18.2-9.6-20.6-11.4-20.8 3.7-1.8 7.8-2.8 12.1-2.8zm1.3 31.7q1-0.3 1.7-1c12.4 11.6 18.7 11.5 21.1 10.8-4.1
7.1-11.3 12.3-19.7 13.6 1.4-1.9 3.5-7.7-3.1-23.4zm2.6-5.5c16.9-7.6 18.1-13.6 18-15.5 3.7 4.7 5.8 10.6 5.8 17q0 3.7-0.9
7c-1.2-2.2-5.9-6.4-22.6-6.5q0-0.2 0-0.5 0-0.8-0.3-1.5zm-5.5 5.3l-0.1 0.1q0 0 0.1-0.1z"
    ></path>
    <path
      d="m408.7 139.2q0-0.1 0-0.1 0.1-1 0.6-1.9 0 0 0 0c0.6-1 1.6-1.7 2.8-1.9q0 0 0.1 0 0.3-0.1 0.7-0.1 0.7 0 1.3 0.3 0-0.1
0.1 0c1.1 0.4 2 1.2 2.5 2.3q0 0 0 0.1 0.3 0.7 0.3 1.5 0 0.3 0 0.5 0 0 0 0.1c-0.1 0.9-0.6 1.7-1.2 2.3q0 0.1 0 0.1-0.7 0.7-1.7
1 0 0 0 0-0.6 0.2-1.3 0.2c-0.6 0-1.2-0.1-1.7-0.3l0.1-0.1q-0.1 0.1-0.1 0.1c-0.6-0.3-1.1-0.7-1.5-1.2q0 0-0.1
0c-0.5-0.7-0.9-1.7-0.9-2.7q0-0.1 0-0.2z"
    ></path>
    <path d="m411.3 143.2l-0.1 0.1q0 0 0.1-0.1z"></path>
    <path d="m411.3 143.2l-0.1 0.1q0 0 0.1-0.1z"></path>
    <path
      d="m103.2 102.9c20.1 0 36.4 16.2 36.4 36.4 0 20.1-16.3 36.3-36.4 36.3-20.1 0-36.4-16.2-36.4-36.3
0-20.2 16.3-36.4 36.4-36.4zm-29.4 36.4c0 16.2 13.1 29.4 29.4 29.4 16.3 0 29.4-13.2 29.4-29.4 0-16.3-13.1-29.5-29.4-29.5-16.3
0-29.4 13.2-29.4 29.5zm9-18.8c0 2.3 1.7 8.2 16.8 16.6q-0.5 0.8-0.6 1.8c-16.8-1.4-21.8 2.5-23.2 4.5q-0.3-2-0.3-4.1c0-7.3
2.7-13.9 7.3-18.8zm17.2 21.5c0.4 0.5 0.9 0.9 1.5 1.1-8 14.2-6.9 20.5-5.7 22.9-8.1-2.3-14.8-8.1-18.1-15.7 1.9 1 7.9 2.3
22.3-8.3zm3.2-30.5c4.5 0 8.7 1.1 12.4 3-2.4 0.8-7.5 4.4-11.1 20.8q-0.6-0.2-1.3-0.2-0.4 0-0.7
0c-3.9-18.2-9.6-20.5-11.4-20.8 3.7-1.8 7.8-2.8 12.1-2.8zm1.3 31.7q1-0.3 1.7-1c12.4 11.6 18.7 11.5 21.1 10.8-4.1
7.2-11.3 12.3-19.7 13.6 1.4-1.9 3.5-7.7-3.1-23.4zm2.6-5.5c16.9-7.5 18.1-13.6 18-15.4 3.7 4.7 5.8 10.5 5.8 17q0 3.6-0.9
6.9c-1.2-2.1-5.9-6.4-22.6-6.5q0-0.2 0-0.4 0-0.9-0.3-1.6zm-5.5 5.4h-0.1q0 0 0.1 0z"
    ></path>
    <path
      d="m107.1 137.7c16.9-7.5 18.1-13.6 18-15.4 3.7 4.7 5.8 10.5 5.8 17q0 3.6-0.9 6.9c-1.2-2.1-5.9-6.4-22.6-6.5q0-0.2
0-0.4 0-0.9-0.3-1.6z"
    ></path>
    <path
      d="m104.5 143.2q1-0.3 1.7-1c12.4 11.6 18.7 11.5 21.1 10.8-4.1 7.2-11.3 12.3-19.7 13.6 1.4-1.9 3.5-7.7-3.1-23.4z"
    ></path>
    <path d="m101.6 143.1h-0.1q0 0 0.1 0z"></path>
    <path
      d="m103.2 111.5c4.5 0 8.7 1.1 12.4 3-2.4 0.8-7.5 4.4-11.1 20.8q-0.6-0.2-1.3-0.2-0.4 0-0.7 0c-3.9-18.2-9.6-20.5-11.4-20.8
3.7-1.8 7.8-2.8 12.1-2.8z"
    ></path>
    <path
      d="m100 142c0.4 0.5 0.9 0.9 1.5 1.1-8 14.2-6.9 20.5-5.7 22.9-8.1-2.3-14.8-8.1-18.1-15.7 1.9 1 7.9 2.3 22.3-8.3z"
    ></path>
    <path
      d="m82.8 120.5c0 2.3 1.7 8.2 16.8 16.6q-0.5 0.8-0.6 1.8c-16.8-1.4-21.8 2.5-23.2 4.5q-0.3-2-0.3-4.1c0-7.3 2.7-13.9 7.3-18.8z"
    ></path>
    <path
      d="m82.8 120.5c0 2.3 1.7 8.2 16.8 16.6q-0.5 0.8-0.6 1.8c-16.8-1.4-21.8 2.5-23.2 4.5q-0.3-2-0.3-4.1c0-7.3
2.7-13.9 7.3-18.8zm17.2 21.5c0.4 0.5 0.9 0.9 1.5 1.1-8 14.2-6.9 20.5-5.7 22.9-8.1-2.3-14.8-8.1-18.1-15.7 1.9 1 7.9 2.3
22.3-8.3zm3.2-30.5c4.5 0 8.7 1.1 12.4 3-2.4 0.8-7.5 4.4-11.1 20.8q-0.6-0.2-1.3-0.2-0.4 0-0.7 0c-3.9-18.2-9.6-20.5-11.4-20.8
3.7-1.8 7.8-2.8 12.1-2.8zm1.3 31.7q1-0.3 1.7-1c12.4 11.6 18.7 11.5 21.1 10.8-4.1 7.2-11.3 12.3-19.7 13.6 1.4-1.9
3.5-7.7-3.1-23.4zm2.6-5.5c16.9-7.5 18.1-13.6 18-15.4 3.7 4.7 5.8 10.5 5.8 17q0 3.6-0.9 6.9c-1.2-2.1-5.9-6.4-22.6-6.5q0-0.2
0-0.4 0-0.9-0.3-1.6zm-5.5 5.4h-0.1q0 0 0.1 0z"
    ></path>
    <path
      d="m99 139q0 0 0-0.1 0.1-1 0.6-1.8 0-0.1 0-0.1c0.6-0.9 1.6-1.6 2.8-1.9q0 0 0.1 0 0.3 0 0.7 0 0.7 0 1.3 0.2 0 0 0.1
0c1.1 0.4 2 1.2 2.5 2.3q0 0.1 0 0.1 0.3 0.7 0.3 1.6 0 0.2 0 0.4 0 0.1 0 0.1c-0.1 0.9-0.6 1.7-1.2 2.4q0 0 0 0-0.7 0.7-1.7 1 0
0.1 0 0-0.6 0.3-1.3 0.3c-0.6 0-1.2-0.2-1.7-0.4h0.1q-0.1
0-0.1 0c-0.6-0.2-1.1-0.6-1.5-1.1q0-0.1-0.1-0.1c-0.5-0.7-0.9-1.6-0.9-2.6q0-0.2 0-0.3z"
    ></path>
    <path d="m101.6 143.1h-0.1q0 0 0.1 0z"></path>
    <path d="m101.6 143.1h-0.1q0 0 0.1 0z"></path>
  </g>
</svg>